<svg width="14" height="15" viewBox="0 0 14 15" fill="none" xmlns="http://www.w3.org/2000/svg">
<path d="M6.95548 2.44401e-08C7.57127 -8.6492e-05 8.16485 0.229527 8.61968 0.643755C9.0745 1.05798 9.3577 1.6269 9.41368 2.23881H13.2379C13.4084 2.23886 13.5726 2.3035 13.6972 2.41968C13.8218 2.53585 13.8976 2.69489 13.9092 2.86467C13.9208 3.03444 13.8674 3.20229 13.7598 3.3343C13.6522 3.4663 13.4983 3.55263 13.3294 3.57582L13.2379 3.58209H12.7146L11.5775 13.4149C11.5269 13.8514 11.3172 14.2541 10.9884 14.5463C10.6596 14.8386 10.2346 15.0001 9.79422 15H4.11675C3.6764 15.0001 3.25139 14.8386 2.92257 14.5463C2.59376 14.2541 2.38409 13.8514 2.33345 13.4149L1.19545 3.58209H0.673111C0.510454 3.58208 0.353301 3.5233 0.230715 3.41663C0.108129 3.30995 0.0284037 3.16259 0.00628234 3.00179L0 2.91045C6.85936e-06 2.74815 0.058913 2.59134 0.165825 2.46902C0.272737 2.3467 0.420422 2.26715 0.581568 2.24507L0.673111 2.23881H4.49728C4.55326 1.6269 4.83647 1.05798 5.29129 0.643755C5.74611 0.229527 6.33969 -8.6492e-05 6.95548 2.44401e-08ZM5.60926 5.59701C5.38938 5.59701 5.20539 5.73582 5.1677 5.91851L5.16052 5.98925V11.4743L5.1677 11.5442C5.20539 11.7269 5.38938 11.8657 5.60926 11.8657C5.82914 11.8657 6.01313 11.7269 6.05082 11.5442L6.058 11.4734V5.99015L6.05082 5.91851C6.01313 5.73672 5.82914 5.59701 5.60926 5.59701ZM8.3017 5.59701C8.08182 5.59701 7.89784 5.73582 7.86014 5.91851L7.85296 5.98925V11.4743L7.86014 11.5442C7.89784 11.7269 8.08182 11.8657 8.3017 11.8657C8.52159 11.8657 8.70557 11.7269 8.74326 11.5442L8.75044 11.4734V5.99015L8.74326 5.91851C8.70557 5.73672 8.52159 5.59791 8.3017 5.59791V5.59701ZM6.95548 1.34328C6.4125 1.34328 5.95928 1.72836 5.85607 2.23881H8.0549C7.95079 1.72836 7.49846 1.34328 6.95548 1.34328Z" fill="#15003E"/>
</svg>
