<svg width="11" height="11" viewBox="0 0 11 11" fill="none" xmlns="http://www.w3.org/2000/svg">
<path d="M1.2904 7.08901L0.709841 9.59456C0.689814 9.68615 0.6905 9.78106 0.71185 9.87236C0.7332 9.96365 0.774675 10.049 0.833243 10.1222C0.891812 10.1954 0.965996 10.2546 1.05038 10.2955C1.13475 10.3364 1.2272 10.3579 1.32095 10.3585C1.36464 10.3629 1.40866 10.3629 1.45234 10.3585L3.97317 9.7779L8.81317 4.95623L6.11206 2.26123L1.2904 7.08901Z" fill="#15003E"/>
<path d="M10.3339 2.54208L8.53116 0.7393C8.41264 0.621375 8.25225 0.555176 8.08505 0.555176C7.91786 0.555176 7.75746 0.621375 7.63894 0.7393L6.63672 1.74152L9.33477 4.43958L10.337 3.43736C10.3956 3.37841 10.4421 3.30847 10.4737 3.23155C10.5053 3.15463 10.5214 3.07224 10.5211 2.98908C10.5208 2.90593 10.5042 2.82365 10.472 2.74694C10.4399 2.67024 10.393 2.60062 10.3339 2.54208Z" fill="#15003E"/>
</svg>
